<svg height="512pt" viewBox="-5 0 512 512.01565" width="512pt" xmlns="http://www.w3.org/2000/svg"><path d="m139.105469 476.070312h224.921875c9.035156 21.101563 29.429687 35.09375 52.367187 35.929688 21.296875.492188 41.164063-10.664062 51.828125-29.101562.824219-1.394532.839844-3.121094.042969-4.53125-.796875-1.40625-2.285156-2.28125-3.902344-2.296876h-42.128906c-4.957031-.015624-8.96875-4.027343-8.984375-8.984374v-26.945313c.015625-4.957031 4.027344-8.96875 8.984375-8.984375h42.128906c1.621094-.003906 3.113281-.878906 3.910157-2.289062.800781-1.414063.78125-3.144532-.050782-4.535157-11.121094-19.199219-32.167968-30.425781-54.304687-28.980469-22.140625 1.449219-41.542969 15.324219-50.070313 35.804688h-224.5625c-8.527344-20.480469-27.929687-34.355469-50.066406-35.804688-22.140625-1.445312-43.1875 9.78125-54.308594 28.980469-.828125 1.390625-.847656 3.121094-.050781 4.535157.796875 1.410156 2.292969 2.285156 3.914063 2.289062h42.128906c4.953125.015625 8.964844 4.027344 8.980468 8.984375v26.945313c-.015624 4.957031-4.027343 8.96875-8.980468 8.984374h-42.128906c-1.617188.015626-3.105469.890626-3.902344 2.296876-.796875 1.410156-.78125 3.136718.039062 4.53125 10.664063 18.4375 30.535156 29.59375 51.828125 29.101562 22.9375-.835938 43.335938-14.828125 52.367188-35.929688zm0 0"/><path d="m80.902344 13.472656v4.492188h26.945312v-4.492188c0-7.441406-6.03125-13.472656-13.472656-13.472656s-13.472656 6.03125-13.472656 13.472656zm0 0"/><path d="m172.734375 161.59375c25.421875 14.957031 46.109375 36.097656 49.613281 50.539062.476563 2.019532 2.28125 3.445313 4.359375 3.445313h49.71875c2.078125 0 3.878907-1.421875 4.359375-3.441406 3.429688-9.734375 9.238282-18.460938 16.898438-25.378907l.050781-.117187c.699219-1.003906 1.601563-1.851563 2.640625-2.492187 9.117188-8.636719 19.191406-16.203126 30.023438-22.554688.195312-.117188.378906-.226562.582031-.328125 14.175781-8.660156 29.925781-14.429687 46.339843-16.976563v-18.535156h-53.894531c-11.882812-.273437-23.542969-3.285156-34.070312-8.800781-23.710938-12.21875-51.867188-12.21875-75.578125 0-10.527344 5.515625-22.1875 8.527344-34.070313 8.800781h-53.894531v18.535156c16.417969 2.546876 32.167969 8.316407 46.34375 16.976563.199219.101563.386719.207031.578125.328125zm78.832031-26.855469c14.882813 0 26.949219 12.0625 26.949219 26.945313 0 14.882812-12.066406 26.949218-26.949219 26.949218-14.882812 0-26.945312-12.066406-26.945312-26.949218.015625-14.875 12.070312-26.929688 26.945312-26.945313zm0 0"/><path d="m422.234375 13.472656c0-7.441406-6.03125-13.472656-13.472656-13.472656-7.441407 0-13.476563 6.03125-13.476563 13.472656v4.492188h26.949219zm0 0"/><path d="m68.523438 58.644531c7.707031-1.902343 15.300781-4.234375 22.746093-6.980469.4375-.105468.882813-.175781 1.328125-.207031 1.199219-.371093 2.480469-.363281 3.675782.019531.40625.035157.808593.09375 1.207031.1875 7.453125 2.75 15.054687 5.082032 22.769531 6.984376 36.421875 8.921874 55.386719 2.164062 64.878906-5.070313 3.546875-3.351563 4.601563-8.578125 2.632813-13.042969-.089844-.207031-.160157-.414062-.230469-.621094-.738281-2.140624-2.617188-3.683593-4.859375-3.984374h-176.59375c-2.242187.304687-4.121094 1.847656-4.851563 3.992187-.070312.210937-.148437.421875-.230468.621094-1.972656 4.449219-.9375002 9.65625 2.589844 13.007812 9.535156 7.269531 28.515624 14.019531 64.9375 5.09375zm0 0"/><path d="m260.550781 161.683594c0 4.960937-4.023437 8.984375-8.984375 8.984375-4.960937 0-8.980468-4.023438-8.980468-8.984375 0-4.960938 4.019531-8.980469 8.980468-8.980469 4.960938 0 8.984375 4.019531 8.984375 8.980469zm0 0"/><path d="m80.902344 73.855469v74.355469c0 7.441406 6.03125 13.472656 13.472656 13.472656s13.472656-6.03125 13.472656-13.472656v-74.359376c-4.519531-1.289062-9.007812-2.714843-13.472656-4.28125-4.464844 1.574219-8.953125 3.003907-13.472656 4.285157zm0 0"/><path d="m422.234375 148.210938v-74.351563c-4.507813-1.285156-9-2.703125-13.472656-4.285156-4.480469 1.582031-8.972657 3-13.476563 4.285156v74.351563c0 7.441406 6.035156 13.472656 13.476563 13.472656 7.441406 0 13.472656-6.03125 13.472656-13.472656zm0 0"/><path d="m407.496094 35.933594h-87.035156c-2.246094.304687-4.132813 1.855468-4.867188 4-.0625.207031-.140625.410156-.21875.605468-1.96875 4.457032-.925781 9.667969 2.605469 13.023438 9.519531 7.257812 28.5 14.007812 64.921875 5.085938 7.707031-1.898438 15.304687-4.230469 22.753906-6.984376.4375-.101562.882812-.171874 1.328125-.207031 1.203125-.371093 2.488281-.363281 3.683594.023438.402343.03125.804687.09375 1.199219.183593 7.449218 2.753907 15.046874 5.085938 22.753906 6.988282 36.449218 8.917968 55.414062 2.160156 64.894531-5.070313 3.550781-3.351562 4.601563-8.574219 2.625-13.035156-.089844-.210937-.167969-.425781-.238281-.640625-.730469-2.136719-2.605469-3.675781-4.84375-3.972656zm0 0"/><path d="m100.488281 346.902344c6.820313 7.859375 16.714844 12.382812 27.121094 12.394531h247.914063c10.398437-.011719 20.28125-4.523437 27.097656-12.371094 6.792968-7.683593 9.914062-17.941406 8.554687-28.105469-7.222656-54.296874-34.722656-103.847656-76.976562-138.703124-5.199219 3.371093-10.191407 7.050781-14.949219 11.019531 40.648438 32.089843 67.242188 78.71875 74.160156 130.042969.679688 5.128906-.949218 10.292968-4.449218 14.101562-3.382813 3.882812-8.289063 6.089844-13.4375 6.050781h-247.914063c-5.277344.015625-10.289063-2.308593-13.691406-6.339843-3.351563-3.769532-4.886719-8.8125-4.195313-13.808594 6.730469-51.390625 33.320313-98.097656 74.078125-130.117188-4.734375-3.945312-9.695312-7.601562-14.863281-10.949218-42.253906 34.851562-69.75 84.402343-76.976562 138.695312-1.363282 10.15625 1.75 20.40625 8.527343 28.089844zm0 0"/></svg>