<svg id="Solid_Gradient" height="512" viewBox="0 0 512 512" width="512" xmlns="http://www.w3.org/2000/svg" xmlns:xlink="http://www.w3.org/1999/xlink" data-name="Solid Gradient"><linearGradient id="linear-gradient" gradientUnits="userSpaceOnUse" x1="256" x2="256" y1="17.366" y2="486.827"><stop offset="0" stop-color="#ff80c9"/><stop offset=".196" stop-color="#f67bcf"/><stop offset=".514" stop-color="#de6fdf"/><stop offset=".915" stop-color="#b65af9"/><stop offset="1" stop-color="#ad55ff"/></linearGradient><g fill="url(#linear-gradient)"><path d="m256 111.9c-79.4 0-144 64.6-144 144 0 62.579 40.126 115.963 96 135.775v-67.5a104 104 0 0 1 -20.767-170.277 8 8 0 0 1 5.292-2h23.475a8 8 0 0 1 8 8v68.162l32 25.6 32-25.6v-68.16a8 8 0 0 1 8-8h23.475a8 8 0 0 1 5.292 2 104 104 0 0 1 -20.767 170.281v67.5c55.874-19.812 96-73.2 96-135.775 0-79.406-64.6-144.006-144-144.006z"/><path d="m344 231.9a88.061 88.061 0 0 0 -27.625-64h-12.375v64a8 8 0 0 1 -3 6.247l-40 32a8 8 0 0 1 -10 0l-40-32a8 8 0 0 1 -3-6.247v-64h-12.375a88 88 0 0 0 23.712 144.02 8 8 0 0 1 4.663 7.27v77.13a144.649 144.649 0 0 0 64 0v-77.127a8 8 0 0 1 4.663-7.27 88.288 88.288 0 0 0 51.337-80.023z"/><path d="m494 223.9h-42a8 8 0 0 1 -7.841-6.408 190.122 190.122 0 0 0 -27.965-67.469 8 8 0 0 1 1.014-10.075l29.712-29.713a2 2 0 0 0 0-2.827l-42.427-42.423a2 2 0 0 0 -2.829 0l-29.712 29.715a8 8 0 0 1 -10.075 1.013 190.133 190.133 0 0 0 -67.468-27.966 8 8 0 0 1 -6.409-7.842v-42a2 2 0 0 0 -2-2h-60a2 2 0 0 0 -2 2v42a8 8 0 0 1 -6.408 7.84 190.149 190.149 0 0 0 -67.469 27.966 8 8 0 0 1 -10.075-1.011l-29.712-29.715a2 2 0 0 0 -2.828 0l-42.427 42.427a2 2 0 0 0 0 2.827l29.712 29.713a8 8 0 0 1 1.014 10.075 190.126 190.126 0 0 0 -27.965 67.473 8 8 0 0 1 -7.842 6.4h-42a2 2 0 0 0 -2 2v60a2 2 0 0 0 2 2h42a8 8 0 0 1 7.841 6.408 190.114 190.114 0 0 0 27.965 67.469 8 8 0 0 1 -1.014 10.075l-29.711 29.716a2 2 0 0 0 0 2.828l42.427 42.426a2 2 0 0 0 2.828 0l29.712-29.712a8 8 0 0 1 10.075-1.012 190.123 190.123 0 0 0 67.468 27.964 8 8 0 0 1 6.409 7.838v42a2 2 0 0 0 2 2h60a2 2 0 0 0 2-2v-42a8 8 0 0 1 6.409-7.84 190.138 190.138 0 0 0 67.468-27.96 8 8 0 0 1 10.075 1.012l29.712 29.712a2 2 0 0 0 2.829 0l42.426-42.424a2 2 0 0 0 0-2.828l-29.712-29.712a8 8 0 0 1 -1.014-10.075 190.107 190.107 0 0 0 27.965-67.469 8 8 0 0 1 7.842-6.416h42a2 2 0 0 0 2-2v-60a2 2 0 0 0 -2-2zm-238 192c-88.224 0-160-71.775-160-160s71.776-160 160-160 160 71.776 160 160-71.776 160-160 160z"/></g></svg>